<svg width="42" height="42" viewBox="0 0 42 42" fill="none" xmlns="http://www.w3.org/2000/svg">
<path d="M5.66352 32.5313C5.66352 31.1666 4.57931 30.0603 3.24188 30.0603C1.90452 30.0603 0.820312 31.1666 0.820312 32.5313V6.9978C0.820312 5.63313 1.90452 4.52686 3.24188 4.52686C4.57931 4.52686 5.66352 5.63313 5.66352 6.9978V32.5313Z" stroke="#002F47" stroke-width="1.64062" stroke-miterlimit="10" stroke-linecap="round" stroke-linejoin="round"/>
<path d="M5.66344 6.99756H38.7581C40.0955 6.99756 41.1797 8.10383 41.1797 9.46859V35.002C41.1797 36.3668 40.0955 37.4731 38.7581 37.4731H5.66344C2.98873 37.4731 0.820312 35.2604 0.820312 32.5311M16.5605 23.4675H30.2827M28.6683 23.4675V14.8915M18.1748 23.4675V14.8915" stroke="#002F47" stroke-width="1.64062" stroke-miterlimit="10" stroke-linecap="round" stroke-linejoin="round"/>
<path d="M16.5609 16.0545L23.422 11.1126L30.283 16.0545M21.404 23.4675V18.5255H25.4399V23.4675M25.0363 27.589V30.8837M28.2651 27.589V29.2364M31.4938 27.589V30.8837M34.7226 27.589V29.2364M21.8076 27.589V29.2364M18.5788 27.589V30.8837M15.3501 27.589V29.2364M12.1213 27.589V30.8837M10.7046 27.589V6.99756M36.2381 27.589V6.99756M8.89258 27.589H37.9512V34.1784H8.89258V27.589Z" stroke="#002F47" stroke-width="1.64062" stroke-miterlimit="10" stroke-linecap="round" stroke-linejoin="round"/>
</svg>
