<svg width="42" height="42" viewBox="0 0 42 42" fill="none" xmlns="http://www.w3.org/2000/svg">
<mask id="mask0_290_1237" style="mask-type:luminance" maskUnits="userSpaceOnUse" x="0" y="0" width="42" height="42">
<path d="M0 0.00012207H41.9999V42H0V0.00012207Z" fill="white"/>
</mask>
<g mask="url(#mask0_290_1237)">
<path d="M37.7343 9.8438V15.3018C37.7343 16.473 37.4835 17.6305 36.9988 18.6967C36.5142 19.7628 35.8068 20.7128 34.9244 21.4828L24.6348 30.4609C22.5477 32.282 19.4404 32.2957 17.3373 30.4931L7.78648 22.3067C6.88801 21.5366 6.1668 20.5812 5.67234 19.5061C5.17787 18.4311 4.92186 17.2617 4.92188 16.0784V9.8438C4.92188 5.31331 8.59449 1.6407 13.125 1.6407H29.5312C34.0617 1.6407 37.7343 5.31331 37.7343 9.8438Z" stroke="#002F47" stroke-width="3.28" stroke-miterlimit="10" stroke-linecap="round" stroke-linejoin="round"/>
<path d="M21 38.1445V40.3594" stroke="#002F47" stroke-width="3.28" stroke-miterlimit="10" stroke-linecap="round" stroke-linejoin="round"/>
<path d="M26.9062 35.4375V37.7344" stroke="#002F47" stroke-width="3.28" stroke-miterlimit="10" stroke-linecap="round" stroke-linejoin="round"/>
<path d="M32.2383 30.7617V33.0586" stroke="#002F47" stroke-width="3.28" stroke-miterlimit="10" stroke-linecap="round" stroke-linejoin="round"/>
<path d="M37.7344 25.8399V28.1367" stroke="#002F47" stroke-width="3.28" stroke-miterlimit="10" stroke-linecap="round" stroke-linejoin="round"/>
<path d="M15.0938 35.4375V37.7344" stroke="#002F47" stroke-width="3.28" stroke-miterlimit="10" stroke-linecap="round" stroke-linejoin="round"/>
<path d="M9.76172 30.7617V33.0586" stroke="#002F47" stroke-width="3.28" stroke-miterlimit="10" stroke-linecap="round" stroke-linejoin="round"/>
<path d="M4.26562 25.8399V28.1367" stroke="#002F47" stroke-width="3.28" stroke-miterlimit="10" stroke-linecap="round" stroke-linejoin="round"/>
<path d="M19.7924 9.44364L18.9852 11.0738C18.8883 11.2691 18.7454 11.438 18.5687 11.5659C18.3921 11.6938 18.1871 11.7769 17.9712 11.808L16.1663 12.0694C15.0617 12.2294 14.6206 13.5823 15.4199 14.3589L16.7259 15.6278C16.8822 15.7794 16.9992 15.9669 17.0667 16.1739C17.1342 16.3809 17.1501 16.6013 17.1133 16.8159L16.805 18.6076C16.6162 19.7041 17.771 20.5402 18.759 20.0225L20.3733 19.1766C20.5667 19.0753 20.7817 19.0224 21 19.0224C21.2183 19.0224 21.4333 19.0753 21.6267 19.1766L23.241 20.0225C24.229 20.5402 25.3838 19.7041 25.195 18.6076L24.8868 16.8159C24.8499 16.6013 24.8659 16.3809 24.9334 16.1739C25.0008 15.9669 25.1178 15.7794 25.2741 15.6278L26.5801 14.3589C27.3794 13.5823 26.9384 12.2294 25.8337 12.0694L24.0289 11.808C23.813 11.7769 23.608 11.6938 23.4313 11.5659C23.2547 11.438 23.1118 11.2691 23.0148 11.0738L22.2076 9.44364C21.7137 8.44598 20.2863 8.44598 19.7924 9.44364Z" stroke="#002F47" stroke-width="3.28" stroke-miterlimit="10" stroke-linecap="round" stroke-linejoin="round"/>
</g>
</svg>
