<svg width="42" height="42" viewBox="0 0 42 42" fill="none" xmlns="http://www.w3.org/2000/svg">
<path d="M22.0664 33.7969H26.4141M33.6328 15.75C33.6328 15.75 26.4141 22.6406 26.332 32.2383C26.332 33.6703 26.9119 35.5006 27.6607 37.0609C28.394 38.5891 27.2888 40.3594 25.5938 40.3594H16.4062C14.7182 40.3594 13.6003 38.5965 14.3323 37.0754C15.0777 35.5268 15.668 33.7022 15.668 32.2383C15.5859 22.6406 8.36719 15.75 8.36719 15.75C9.84375 17.2266 14.4375 24.6094 21.082 24.6094C27.7266 24.6094 31.7461 17.3086 33.6328 15.75Z" stroke="#002F47" stroke-width="3.28125" stroke-miterlimit="10" stroke-linecap="round" stroke-linejoin="round"/>
<path d="M26.0465 5.47896L28.54 5.57379C28.8104 5.58408 29.0707 5.6791 29.2841 5.84541C29.4975 6.01172 29.6533 6.24091 29.7294 6.50058L30.147 7.92636C30.2249 8.1924 30.2152 8.47644 30.1193 8.73655C30.0234 8.99665 29.8465 9.21903 29.6145 9.37085L27.6475 10.7505L25.7762 9.33697C25.5259 9.1325 25.345 8.85563 25.2582 8.54431C25.1714 8.23298 25.1831 7.90244 25.2915 7.59799L26.0465 5.47896ZM16.1291 5.47896L13.6356 5.57379C13.3653 5.58406 13.1049 5.67907 12.8915 5.84538C12.6781 6.0117 12.5223 6.2409 12.4463 6.50058L12.0287 7.92636C11.9507 8.1924 11.9604 8.47644 12.0563 8.73655C12.1522 8.99665 12.3292 9.21903 12.5611 9.37085L14.5281 10.7505L16.3994 9.33697C16.6497 9.1325 16.8307 8.85563 16.9174 8.54431C17.0042 8.23298 16.9925 7.90244 16.8841 7.59799L16.1291 5.47896ZM15.1461 13.2075L14.6141 15.64C14.5382 15.9034 14.5471 16.1839 14.6394 16.442C14.7317 16.7001 14.9028 16.9226 15.1284 17.0782L16.3675 17.9321C16.5987 18.0915 16.8751 18.1722 17.1557 18.1625C17.4363 18.1528 17.7064 18.053 17.926 17.8781L19.9217 16.2878L19.1108 14.1748C18.8705 13.5486 18.2623 13.1915 17.5917 13.2075H15.1461ZM24.0414 3.6235L23.1093 1.31456C23.0234 1.05427 22.858 0.827538 22.6362 0.666435C22.4145 0.505333 22.1477 0.41801 21.8736 0.416814L20.3688 0.410169C20.088 0.408926 19.8142 0.498017 19.588 0.664284C19.3617 0.830551 19.1949 1.06518 19.1122 1.33351L18.3606 3.77214L20.2216 5.05995C20.7732 5.44164 21.4768 5.39357 22.0216 5.00236L24.0414 3.6235ZM24.5722 13.2075C23.9016 13.1916 23.2934 13.5486 23.0531 14.1748L22.2422 16.2878L24.2379 17.8781C24.4575 18.053 24.7276 18.1528 25.0082 18.1625C25.2888 18.1722 25.5652 18.0915 25.7964 17.9321L27.0354 17.0782C27.2611 16.9226 27.4322 16.7001 27.5245 16.442C27.6168 16.1839 27.6256 15.9034 27.5498 15.64L27.0178 13.2075H24.5722ZM18.4473 9.80488L18.9762 11.3649C19.1666 11.9263 19.6986 12.3047 20.2976 12.3047H21.9028C22.5163 12.3047 23.0578 11.908 23.2363 11.3276L23.7288 9.72564C23.9056 9.15027 23.6846 8.52806 23.1825 8.18837L21.8629 7.29546C21.6252 7.13503 21.3442 7.05105 21.0574 7.05477C20.7707 7.0585 20.492 7.14975 20.2585 7.3163L18.9517 8.25121C18.4579 8.60443 18.2536 9.2337 18.4473 9.80488Z" fill="#002F47"/>
<path d="M21.082 18.0469C25.6125 18.0469 29.2852 14.3742 29.2852 9.84375C29.2852 5.31329 25.6125 1.64062 21.082 1.64062C16.5516 1.64062 12.8789 5.31329 12.8789 9.84375C12.8789 14.3742 16.5516 18.0469 21.082 18.0469Z" stroke="#002F47" stroke-width="3.28125" stroke-miterlimit="10" stroke-linecap="round" stroke-linejoin="round"/>
</svg>
