<svg width="32" height="32" viewBox="0 0 32 32" fill="none" xmlns="http://www.w3.org/2000/svg">
<g clip-path="url(#clip0_30_280)">
<path d="M14.5398 25.6319C19.0263 25.6319 22.6633 21.9949 22.6633 17.5084C22.6633 13.0219 19.0263 9.38489 14.5398 9.38489C10.0533 9.38489 6.41632 13.0219 6.41632 17.5084C6.41632 21.9949 10.0533 25.6319 14.5398 25.6319Z" stroke="#002F47" stroke-width="1.8728" stroke-miterlimit="10"/>
<path d="M14.5399 31.0202C22.0022 31.0202 28.0517 24.9707 28.0517 17.5084C28.0517 10.046 22.0022 3.99658 14.5399 3.99658C7.07751 3.99658 1.02808 10.046 1.02808 17.5084C1.02808 24.9707 7.07751 31.0202 14.5399 31.0202Z" stroke="#002F47" stroke-width="1.8728" stroke-miterlimit="10"/>
<path d="M23.7564 4.02504L26.4572 1.32422L27.0628 1.92982L27.3615 4.57708L30.0389 4.90588L30.5842 5.45118L27.8834 8.152H24.2195L23.7565 7.68898L23.7564 4.02504Z" stroke="#002F47" stroke-width="1.8728" stroke-miterlimit="10"/>
<path d="M14.5398 20.5738C16.2328 20.5738 17.6052 19.2014 17.6052 17.5084C17.6052 15.8154 16.2328 14.443 14.5398 14.443C12.8469 14.443 11.4744 15.8154 11.4744 17.5084C11.4744 19.2014 12.8469 20.5738 14.5398 20.5738Z" stroke="#002F47" stroke-width="1.8728" stroke-miterlimit="10"/>
<path d="M2.90082 24.3757V31.0635H6.03844L7.87154 28.492M26.2028 24.4778V31.0635H23.0652L21.2321 28.492M24.0579 7.99036L16.5991 15.4491" stroke="#002F47" stroke-width="1.8728" stroke-miterlimit="10"/>
</g>
<defs>
<clipPath id="clip0_30_280">
<rect width="32" height="32" fill="white"/>
</clipPath>
</defs>
</svg>
