<svg width="32" height="32" viewBox="0 0 32 32" fill="none" xmlns="http://www.w3.org/2000/svg">
<g clip-path="url(#clip0_30_289)">
<path d="M25.9827 6.01732C23.5393 3.57396 20.3578 2.13735 16.9412 1.91398V0H15.0588V1.91398C8.19614 2.23329 2.23335 8.19633 1.91398 15.0588H0V16.9412H1.91398C2.23329 23.8039 8.19633 29.7667 15.0588 30.086V32H16.9412V30.086C23.8039 29.7667 29.7667 23.8037 30.086 16.9412H32V15.0588H30.086C29.8626 11.6422 28.426 8.46074 25.9827 6.01732ZM28.1995 15.0588H26.3096C25.8606 10.0998 21.9002 6.13936 16.9412 5.69029V3.80053C22.939 4.25895 27.7411 9.06096 28.1995 15.0588ZM16 24.4706C14.2702 24.4706 12.6601 23.949 11.318 23.0554C12.0365 17.4435 19.9657 17.4477 20.682 23.0554C19.3399 23.949 17.7298 24.4706 16 24.4706ZM14.1176 15.0588C14.1176 14.0209 14.9621 13.1765 16 13.1765C18.4972 13.2799 18.4965 16.8382 16 16.9412C14.9621 16.9412 14.1176 16.0968 14.1176 15.0588ZM22.3123 21.642C21.7726 19.8402 20.481 18.3604 18.8033 17.5683C20.9628 15.194 19.2413 11.2826 16 11.2941C12.7588 11.2825 11.0371 15.1946 13.1967 17.5683C11.5191 18.3604 10.2275 19.8402 9.68778 21.642C4.83583 16.2982 8.71002 7.50331 16.0001 7.52947C23.2899 7.50318 27.1646 16.2996 22.3123 21.642ZM15.0588 3.80053V5.69029C10.0998 6.13936 6.13936 10.0998 5.69029 15.0588H3.80053C4.25895 9.06096 9.06096 4.25895 15.0588 3.80053ZM3.80053 16.9412H5.69029C6.13936 21.9002 10.0998 25.8606 15.0588 26.3097V28.1995C9.06096 27.7411 4.25895 22.939 3.80053 16.9412ZM16.9412 28.1995V26.3097C21.9002 25.8607 25.8606 21.9003 26.3096 16.9412H28.1994C27.7411 22.939 22.939 27.7411 16.9412 28.1995ZM27.2941 0V1.88235H30.1176V4.70588H32V0H27.2941ZM1.88235 1.88235H4.70588V0H0V4.70588H1.88235V1.88235ZM30.1176 30.1176H27.2941V32H32V27.2941H30.1176V30.1176ZM1.88235 27.2941H0V32H4.70588V30.1176H1.88235V27.2941Z" fill="#002F47"/>
</g>
<defs>
<clipPath id="clip0_30_289">
<rect width="32" height="32" fill="white"/>
</clipPath>
</defs>
</svg>
