<svg width="32" height="32" viewBox="0 0 32 32" fill="none" xmlns="http://www.w3.org/2000/svg">
<g clip-path="url(#clip0_61_549)">
<path d="M24.4375 21.875C21.5082 21.875 19.125 19.4918 19.125 16.5625C19.125 13.6332 21.5082 11.25 24.4375 11.25C27.3668 11.25 29.75 13.6332 29.75 16.5625C29.75 19.4918 27.3668 21.875 24.4375 21.875ZM24.4375 13.75C22.8867 13.75 21.625 15.0117 21.625 16.5625C21.625 18.1133 22.8867 19.375 24.4375 19.375C25.9883 19.375 27.25 18.1133 27.25 16.5625C27.25 15.0117 25.9883 13.75 24.4375 13.75ZM14.5 30.75C14.5 30.0596 13.9404 29.5 13.25 29.5H7.49869C4.74244 29.5 2.5 27.2576 2.5 24.5013V7.49869C2.5 4.74244 4.74244 2.5 7.49869 2.5H19.0026C21.7589 2.5 24.0012 4.74244 24.0012 7.49869C24.0012 8.18906 24.5609 8.74869 25.2512 8.74869C25.9416 8.74869 26.5012 8.18906 26.5012 7.49869C26.5013 3.36394 23.1374 0 19.0013 0H7.49869C3.36394 0 0 3.36394 0 7.49869V24.5012C0 28.6361 3.36394 32 7.49869 32H13.25C13.9404 32 14.5 31.4404 14.5 30.75ZM16.5625 14.1875C16.5625 13.4971 16.0029 12.9375 15.3125 12.9375H9.1875C8.49712 12.9375 7.9375 13.4971 7.9375 14.1875C7.9375 14.8779 8.49712 15.4375 9.1875 15.4375H15.3125C16.0029 15.4375 16.5625 14.8779 16.5625 14.1875ZM16.5625 23.75C16.5625 23.0596 16.0029 22.5 15.3125 22.5H9.1875C8.49712 22.5 7.9375 23.0596 7.9375 23.75C7.9375 24.4404 8.49712 25 9.1875 25H15.3125C16.0029 25 16.5625 24.4404 16.5625 23.75ZM16.5625 18.9375C16.5625 18.2471 16.0029 17.6875 15.3125 17.6875H9.1875C8.49712 17.6875 7.9375 18.2471 7.9375 18.9375C7.9375 19.6279 8.49712 20.1875 9.1875 20.1875H15.3125C16.0029 20.1875 16.5625 19.6279 16.5625 18.9375Z" fill="#002F47"/>
<path d="M30.75 32C30.0596 32 29.5 31.4404 29.5 30.75C29.5 28.2687 27.4946 26.25 25.0297 26.25H23.9704C21.5054 26.25 19.5 28.2687 19.5 30.75C19.5 31.4404 18.9404 32 18.25 32C17.5596 32 17 31.4404 17 30.75C17 26.8902 20.1269 23.75 23.9703 23.75H25.0296C28.8731 23.75 32 26.8902 32 30.75C32 31.4404 31.4404 32 30.75 32ZM19.0625 9.375C19.0625 8.68463 18.5029 8.125 17.8125 8.125H9.1875C8.49713 8.125 7.9375 8.68463 7.9375 9.375C7.9375 10.0654 8.49713 10.625 9.1875 10.625H17.8125C18.5029 10.625 19.0625 10.0654 19.0625 9.375Z" fill="#A2D014"/>
</g>
<defs>
<clipPath id="clip0_61_549">
<rect width="32" height="32" fill="white"/>
</clipPath>
</defs>
</svg>
