<svg width="32" height="32" viewBox="0 0 32 32" fill="none" xmlns="http://www.w3.org/2000/svg">
<path d="M21 30.75H6C4.61931 30.75 3.5 29.6307 3.5 28.25V3.75C3.5 2.36931 4.61931 1.25 6 1.25H26C27.3807 1.25 28.5 2.36931 28.5 3.75V28.25C28.5 29.6307 27.3807 30.75 26 30.75" stroke="#002F47" stroke-width="2.5" stroke-miterlimit="10" stroke-linecap="round" stroke-linejoin="round"/>
<path d="M16 19.75C18.0711 19.75 19.75 18.0711 19.75 16C19.75 13.9289 18.0711 12.25 16 12.25C13.9289 12.25 12.25 13.9289 12.25 16C12.25 18.0711 13.9289 19.75 16 19.75Z" stroke="#A2D014" stroke-width="2.5" stroke-miterlimit="10" stroke-linecap="round" stroke-linejoin="round"/>
<path d="M8.5 16H12.25M19.75 16H23.5" stroke="#A2D014" stroke-width="2.5" stroke-miterlimit="10" stroke-linecap="round" stroke-linejoin="round"/>
<path d="M11 30.75V27.25C11 25.8693 12.1193 24.75 13.5 24.75H18.5C19.8807 24.75 21 25.8693 21 27.25V30.75M21 1.25V5C21 6.38069 19.8807 7.5 18.5 7.5H13.5C12.1193 7.5 11 6.38069 11 5V1.25" stroke="#002F47" stroke-width="2.5" stroke-miterlimit="10" stroke-linecap="round" stroke-linejoin="round"/>
</svg>
