<svg width="56" height="56" viewBox="0 0 56 56" fill="none" xmlns="http://www.w3.org/2000/svg">
<path d="M56 28C56 12.536 43.464 0 28 0C12.536 0 0 12.536 0 28C0 43.464 12.536 56 28 56C43.464 56 56 43.464 56 28Z" fill="#A2D014"/>
<path d="M36.4375 33.875C33.5082 33.875 31.125 31.4918 31.125 28.5625C31.125 25.6332 33.5082 23.25 36.4375 23.25C39.3668 23.25 41.75 25.6332 41.75 28.5625C41.75 31.4918 39.3668 33.875 36.4375 33.875ZM36.4375 25.75C34.8867 25.75 33.625 27.0117 33.625 28.5625C33.625 30.1133 34.8867 31.375 36.4375 31.375C37.9883 31.375 39.25 30.1133 39.25 28.5625C39.25 27.0117 37.9883 25.75 36.4375 25.75ZM26.5 42.75C26.5 42.0596 25.9404 41.5 25.25 41.5H19.4987C16.7424 41.5 14.5 39.2576 14.5 36.5013V19.4987C14.5 16.7424 16.7424 14.5 19.4987 14.5H31.0026C33.7589 14.5 36.0012 16.7424 36.0012 19.4987C36.0012 20.1891 36.5609 20.7487 37.2512 20.7487C37.9416 20.7487 38.5012 20.1891 38.5012 19.4987C38.5013 15.3639 35.1374 12 31.0013 12H19.4987C15.3639 12 12 15.3639 12 19.4987V36.5012C12 40.6361 15.3639 44 19.4987 44H25.25C25.9404 44 26.5 43.4404 26.5 42.75ZM28.5625 26.1875C28.5625 25.4971 28.0029 24.9375 27.3125 24.9375H21.1875C20.4971 24.9375 19.9375 25.4971 19.9375 26.1875C19.9375 26.8779 20.4971 27.4375 21.1875 27.4375H27.3125C28.0029 27.4375 28.5625 26.8779 28.5625 26.1875ZM28.5625 35.75C28.5625 35.0596 28.0029 34.5 27.3125 34.5H21.1875C20.4971 34.5 19.9375 35.0596 19.9375 35.75C19.9375 36.4404 20.4971 37 21.1875 37H27.3125C28.0029 37 28.5625 36.4404 28.5625 35.75ZM28.5625 30.9375C28.5625 30.2471 28.0029 29.6875 27.3125 29.6875H21.1875C20.4971 29.6875 19.9375 30.2471 19.9375 30.9375C19.9375 31.6279 20.4971 32.1875 21.1875 32.1875H27.3125C28.0029 32.1875 28.5625 31.6279 28.5625 30.9375Z" fill="#002F47"/>
<path d="M42.75 44C42.0596 44 41.5 43.4404 41.5 42.75C41.5 40.2687 39.4946 38.25 37.0297 38.25H35.9704C33.5054 38.25 31.5 40.2687 31.5 42.75C31.5 43.4404 30.9404 44 30.25 44C29.5596 44 29 43.4404 29 42.75C29 38.8902 32.1269 35.75 35.9703 35.75H37.0296C40.8731 35.75 44 38.8902 44 42.75C44 43.4404 43.4404 44 42.75 44ZM31.0625 21.375C31.0625 20.6846 30.5029 20.125 29.8125 20.125H21.1875C20.4971 20.125 19.9375 20.6846 19.9375 21.375C19.9375 22.0654 20.4971 22.625 21.1875 22.625H29.8125C30.5029 22.625 31.0625 22.0654 31.0625 21.375Z" fill="white"/>
</svg>
