<svg width="56" height="56" viewBox="0 0 56 56" fill="none" xmlns="http://www.w3.org/2000/svg">
<path d="M56 28C56 12.536 43.464 0 28 0C12.536 0 0 12.536 0 28C0 43.464 12.536 56 28 56C43.464 56 56 43.464 56 28Z" fill="#A2D014"/>
<path d="M35.5 18H37.75C40.5114 18 42.75 20.2386 42.75 23V33C42.75 35.7614 40.5114 38 37.75 38H35.5M25.5 33C28.2614 33 30.5 30.7614 30.5 28V25.5M30.5 25.5C28.5474 25.5 27.4526 28 25.5 28C24.1193 28 23 26.8807 23 25.5C23 24.1193 24.1193 23 25.5 23C27.4526 23 28.5474 25.5 30.5 25.5Z" stroke="#002F47" stroke-width="2.5" stroke-miterlimit="10" stroke-linecap="round" stroke-linejoin="round"/>
<path d="M30.5 25.5C32.4526 25.5 33.5474 28 35.5 28C36.8807 28 38 26.8807 38 25.5C38 24.1193 36.8807 23 35.5 23C33.5474 23 32.4526 25.5 30.5 25.5ZM30.5 25.5V18M30.5 25.5V38M25.5 18H18.25C15.4886 18 13.25 20.2386 13.25 23V33C13.25 35.7614 15.4886 38 18.25 38H25.5M35.5 33C32.7386 33 30.5 30.7614 30.5 28" stroke="#002F47" stroke-width="2.5" stroke-miterlimit="10" stroke-linecap="round" stroke-linejoin="round"/>
<path d="M18.25 33H20.75" stroke="white" stroke-width="2.5" stroke-miterlimit="10" stroke-linecap="round" stroke-linejoin="round"/>
</svg>
