<svg width="42" height="42" viewBox="0 0 42 42" fill="none" xmlns="http://www.w3.org/2000/svg">
<g clip-path="url(#clip0_4_1006)">
<path d="M17.2936 24.7065L38.2969 3.70314M30.1138 11.8862L28.949 6.06203L34.1908 0.820312L35.9381 6.06203L30.1138 11.8862Z" stroke="#002F47" stroke-width="1.64062" stroke-miterlimit="10" stroke-linecap="round" stroke-linejoin="round"/>
<path d="M30.1139 11.8862L35.938 13.0511L41.1798 7.80928L35.9381 6.06201L30.1139 11.8862Z" stroke="#002F47" stroke-width="1.64062" stroke-miterlimit="10" stroke-linecap="round" stroke-linejoin="round"/>
<path d="M16.8818 41.1797C25.7523 41.1797 32.9432 33.9887 32.9432 25.1183C32.9432 16.2478 25.7523 9.05688 16.8818 9.05688C8.01133 9.05688 0.820404 16.2478 0.820404 25.1183C0.820404 33.9887 8.01133 41.1797 16.8818 41.1797Z" stroke="#002F47" stroke-width="1.64062" stroke-miterlimit="10" stroke-linecap="round" stroke-linejoin="round"/>
<path d="M25.3267 33.5631C29.9907 28.899 29.9905 21.337 25.3264 16.673C20.6622 12.0091 13.1003 12.0092 8.43629 16.6733C3.7723 21.3375 3.77243 28.8994 8.43658 33.5634C13.1007 38.2274 20.6627 38.2273 25.3267 33.5631Z" stroke="#002F47" stroke-width="1.64062" stroke-miterlimit="10" stroke-linecap="round" stroke-linejoin="round"/>
<path d="M22.4146 30.6511C25.4703 27.5953 25.4702 22.6409 22.4144 19.5852C19.3585 16.5294 14.4041 16.5295 11.3484 19.5853C8.2927 22.6412 8.29279 27.5956 11.3486 30.6513C14.4044 33.707 19.3588 33.7069 22.4146 30.6511Z" stroke="#002F47" stroke-width="1.64062" stroke-miterlimit="10" stroke-linecap="round" stroke-linejoin="round"/>
<path d="M16.8818 28.8248C18.9288 28.8248 20.5883 27.1653 20.5883 25.1183C20.5883 23.0713 18.9288 21.4118 16.8818 21.4118C14.8348 21.4118 13.1753 23.0713 13.1753 25.1183C13.1753 27.1653 14.8348 28.8248 16.8818 28.8248Z" stroke="#002F47" stroke-width="1.64062" stroke-miterlimit="10" stroke-linecap="round" stroke-linejoin="round"/>
</g>
<defs>
<clipPath id="clip0_4_1006">
<rect width="42" height="42" fill="white"/>
</clipPath>
</defs>
</svg>
