<svg width="42" height="42" viewBox="0 0 42 42" fill="none" xmlns="http://www.w3.org/2000/svg">
<g clip-path="url(#clip0_4_1017)">
<path d="M34.9453 3.28124H32.0742V0.820311C32.0742 0.367253 31.7068 0 31.2539 0H10.7461C10.293 0 9.92577 0.367253 9.92577 0.820311V3.28124H7.05469C6.60163 3.28124 6.23438 3.6485 6.23438 4.10155V11.4844C6.23438 13.7555 7.92118 15.64 10.1078 15.951C10.8781 20.1441 14.0179 23.5186 18.0827 24.6296L17.3448 32.1563H12.7969C12.6247 32.1563 12.4569 32.2105 12.3172 32.3112C12.1775 32.4119 12.0731 32.5539 12.0186 32.7173L10.378 37.6391C10.3501 37.7228 10.3359 37.8104 10.3359 37.8985V41.1798C10.3359 41.6328 10.7032 42.0001 11.1562 42.0001H30.8437C31.2967 42.0001 31.664 41.6328 31.664 41.1798V37.8985C31.664 37.8103 31.6498 37.7227 31.6219 37.6391L29.9812 32.7172C29.9268 32.5539 29.8223 32.4118 29.6826 32.3112C29.543 32.2105 29.3752 32.1563 29.203 32.1563H24.6551L23.9172 24.6296C27.982 23.5186 31.1219 20.1441 31.8921 15.951C34.0788 15.64 35.7656 13.7555 35.7656 11.4844V4.10155C35.7656 3.6485 35.3983 3.28124 34.9453 3.28124ZM11.5664 1.64062H30.4335V3.28124H11.5664V1.64062ZM7.875 11.4844V4.92186H9.92577V13.9453C9.92577 14.0429 9.92709 14.1402 9.92955 14.2372C8.74297 13.8846 7.875 12.7839 7.875 11.4844ZM30.0235 38.0317V40.3595H11.9766V38.0317L13.3881 33.797H28.6118L30.0235 38.0317ZM23.0067 32.1563H18.9933L19.7004 24.9435C20.5501 25.0444 21.4498 25.0444 22.2995 24.9435L23.0067 32.1563ZM21 23.3789C15.7983 23.3789 11.5664 19.147 11.5664 13.9453V4.92186H30.4335V13.9453C30.4335 19.147 26.2016 23.3789 21 23.3789ZM34.125 11.4844C34.125 12.784 33.2571 13.8846 32.0704 14.2372C32.0729 14.1401 32.0742 14.0428 32.0742 13.9452V4.92186H34.125V11.4844Z" fill="#002F47"/>
<path d="M15.4699 38.7189H26.5302C27.6175 38.6785 27.6166 37.1182 26.5302 37.0782H15.4699C14.3827 37.1186 14.3835 38.6789 15.4699 38.7189ZM21 6.56246C19.028 6.56246 17.174 7.33035 15.7796 8.7248C12.9159 11.4729 12.9154 16.4175 15.7797 19.1657C20.3961 23.798 28.3945 20.4844 28.3827 13.9452C28.4647 9.97717 24.9684 6.48026 21 6.56246ZM25.0603 18.0056C23.5342 19.5678 21.1127 20.0997 19.0694 19.3562L19.195 19.2306C19.9352 18.4333 18.8313 17.3305 18.0348 18.0705L17.5773 18.5279C17.5718 18.5335 17.5663 18.5391 17.5609 18.5448C17.1271 18.22 16.7241 17.8171 16.4008 17.3838C16.4063 17.3785 16.4117 17.3732 16.4172 17.3678L16.8747 16.9103C17.615 16.1129 16.5111 15.0102 15.7146 15.7501L15.5916 15.8731C13.9812 11.3705 18.3483 6.91043 22.9307 8.53408L22.8051 8.65967C22.0647 9.45693 23.1687 10.5598 23.9651 9.81983L24.4227 9.36235C24.4282 9.35677 24.4337 9.35111 24.4391 9.34545C24.6568 9.50894 24.8643 9.68891 25.0602 9.8848C25.2561 10.0807 25.4362 10.2883 25.5997 10.506C25.5939 10.5114 25.5883 10.5169 25.5827 10.5225L25.1253 10.98C24.8049 11.3003 24.8049 11.8198 25.1253 12.1401C25.4456 12.4604 25.9652 12.4604 26.2854 12.1401L26.411 12.0145C27.1544 14.0582 26.6227 16.479 25.0603 18.0056Z" fill="#002F47"/>
<path d="M18.2306 13.2343L17.7731 13.6918C17.0329 14.4892 18.1368 15.5918 18.9333 14.852L19.3908 14.3945C20.131 13.5972 19.027 12.4944 18.2306 13.2343ZM20.7465 10.7184L20.2891 11.1759C19.9688 11.4963 19.9688 12.0157 20.2891 12.336C20.6094 12.6563 21.1288 12.6563 21.4492 12.336L21.9066 11.8785C22.2269 11.5582 22.2269 11.0388 21.9065 10.7184C21.5863 10.398 21.0668 10.3981 20.7465 10.7184ZM20.5508 15.5546L20.0933 16.0121C19.353 16.8095 20.4569 17.9121 21.2534 17.1722L21.7109 16.7147C22.0312 16.3944 22.0312 15.875 21.7109 15.5546C21.3906 15.2343 20.8712 15.2342 20.5508 15.5546ZM23.0668 13.0386L22.6093 13.4961C21.8689 14.2934 22.9729 15.3962 23.7694 14.6563L24.2269 14.1988C24.9672 13.4015 23.8633 12.2986 23.0668 13.0386Z" fill="#002F47"/>
</g>
<defs>
<clipPath id="clip0_4_1017">
<rect width="42" height="42" fill="white"/>
</clipPath>
</defs>
</svg>
