<svg width="42" height="42" viewBox="0 0 42 42" fill="none" xmlns="http://www.w3.org/2000/svg">
<path fill-rule="evenodd" clip-rule="evenodd" d="M27.5655 8.18636C27.5655 8.63777 27.1962 9.0071 26.7448 9.0071H8.68864C8.23732 9.0071 7.86791 8.63777 7.86791 8.18636H6.22644V36.2555H26.1309C25.356 33.4347 26.7595 30.2765 29.2069 28.9266V8.18628L27.5655 8.18636Z" fill="#A2D014"/>
<path d="M17.7171 4.90337C18.1704 4.90337 18.5378 4.53584 18.5378 4.08263C18.4976 2.99508 16.9359 2.99524 16.8961 4.08263C16.896 4.53592 17.2638 4.90337 17.7171 4.90337Z" fill="#002F47"/>
<path d="M33.3108 27.2727V6.54478C33.3108 5.18712 32.2063 4.08258 30.8486 4.08258H28.166C27.8818 3.59235 27.3512 3.26193 26.7449 3.26193H21.7382C20.7875 -1.08879 14.6446 -1.08583 13.6955 3.26193H8.6888C8.08244 3.26193 7.55192 3.59235 7.2677 4.08258H4.58513C3.22747 4.08258 2.12292 5.18712 2.12292 6.54478V37.8969C2.12292 39.2546 3.22747 40.3591 4.58513 40.3591H27.8524C32.5515 44.2519 39.9311 40.7706 39.8768 34.6139C39.8768 30.8184 36.9991 27.6822 33.3108 27.2727ZM34.0324 40.1489L33.3109 39.7324V37.884L34.9116 36.9599L36.5123 37.884V38.7126C35.8292 39.383 34.9798 39.8846 34.0324 40.1489ZM28.468 38.7124V37.8839L30.0688 36.9598L31.6695 37.8839V39.7323L30.948 40.1488C30.0006 39.8846 29.1511 39.3829 28.468 38.7124ZM36.5123 30.5156V31.3442L34.9116 32.2683L33.3109 31.3442V29.4958L34.0325 29.0791C34.9799 29.3435 35.8292 29.845 36.5123 30.5156ZM37.3331 36.4624L35.7323 35.5383V33.6898L37.3331 32.7657L38.0547 33.1824C38.2944 34.0912 38.2943 35.137 38.0547 36.0458L37.3331 36.4624ZM32.4902 36.4624L30.8894 35.5383V33.6898L32.4902 32.7657L34.0908 33.6898V35.5383L32.4902 36.4624ZM27.6473 36.4624L26.9257 36.0458C26.686 35.137 26.686 34.0911 26.9257 33.1823L27.6473 32.7657L29.248 33.6898V35.5383L27.6473 36.4624ZM30.9478 29.0791L31.6695 29.4958V31.3441L30.0688 32.2682L28.468 31.3441V30.5156C29.151 29.8451 30.0005 29.3435 30.9478 29.0791ZM14.4339 4.90339C14.8871 4.90339 15.2546 4.53587 15.2546 4.08266C15.2546 2.72492 16.3591 1.62029 17.7169 1.62029C19.0746 1.62029 20.1792 2.72492 20.1792 4.08266C20.1792 4.53587 20.5466 4.90339 20.9999 4.90339H26.7449V8.18625H8.6888L8.68863 4.90339H14.4339ZM3.76439 37.8969V6.54478C3.76439 6.09223 4.13257 5.72405 4.58513 5.72405H7.04733V8.18625C7.04733 9.09135 7.78369 9.82772 8.6888 9.82772H26.7449C27.6501 9.82772 28.3864 9.09135 28.3864 8.18625V5.72405H30.8486C31.3012 5.72405 31.6694 6.09223 31.6694 6.54478V27.2727C26.2623 27.801 23.2478 34.2267 26.3511 38.7176H4.58513C4.13257 38.7176 3.76439 38.3495 3.76439 37.8969Z" fill="#002F47"/>
<path d="M18.45 29.2141C18.1295 28.8936 17.6098 28.8936 17.2893 29.2141L16.6385 29.8648L15.9877 29.2141C15.6673 28.8936 15.1476 28.8936 14.827 29.2141C14.5065 29.5346 14.5065 30.0542 14.827 30.3748L15.4777 31.0256L14.827 31.6763C14.5065 31.9968 14.5065 32.5165 14.827 32.8371C15.1476 33.1576 15.6672 33.1576 15.9877 32.8371L16.6385 32.1863L17.2893 32.8371C17.6098 33.1576 18.1295 33.1576 18.45 32.8371C18.7705 32.5166 18.7705 31.9969 18.45 31.6763L17.7993 31.0256L18.45 30.3748C18.7705 30.0543 18.7705 29.5346 18.45 29.2141ZM11.0552 15.9956L11.706 15.3448L12.3567 15.9956C12.6773 16.3161 13.1969 16.3161 13.5175 15.9956C13.838 15.6751 13.838 15.1554 13.5175 14.8348L12.8667 14.184L13.5175 13.5333C13.838 13.2128 13.838 12.6931 13.5175 12.3725C13.197 12.0521 12.6773 12.0521 12.3567 12.3725L11.706 13.0233L11.0552 12.3725C10.7347 12.0521 10.215 12.0521 9.89445 12.3725C9.57396 12.693 9.57396 13.2127 9.89445 13.5333L10.5452 14.184L9.89445 14.8348C9.15276 15.6298 10.2608 16.737 11.0552 15.9956ZM15.61 23.8076C15.4261 23.1215 14.9869 22.5476 14.3727 22.1912C15.4642 19.4462 17.7861 17.7214 21.2835 17.0573C22.0035 19.2335 25.0011 19.5213 26.124 17.5475C26.8664 16.3207 26.4042 14.595 25.1476 13.9038C23.7103 13.0367 21.7511 13.8246 21.2777 15.3904C17.1659 16.1122 14.1551 18.0826 12.7477 21.8453C11.1517 21.9914 10.0144 23.6463 10.457 25.1883C11.5249 28.5786 16.3855 27.2509 15.61 23.8076ZM23.5485 15.2229C24.4176 14.9804 25.1621 15.9491 24.7025 16.7268C24.2634 17.5124 23.0454 17.3522 22.8231 16.4794C22.6767 15.9329 23.0022 15.3693 23.5485 15.2229ZM13.2991 25.489C12.7527 25.6352 12.189 25.31 12.0426 24.7635V24.7635C11.8004 23.8938 12.7683 23.1502 13.5465 23.6096C14.332 24.0486 14.1718 25.2666 13.2991 25.489ZM25.2704 25.2992L24.6197 24.6484L25.2704 23.9976C25.5909 23.6771 25.5909 23.1575 25.2704 22.8369C24.9498 22.5165 24.4303 22.5165 24.1097 22.8369L23.4589 23.4876L22.8081 22.8369C22.4876 22.5165 21.968 22.5165 21.6474 22.8369C21.3269 23.1574 21.3269 23.6771 21.6474 23.9976L22.2981 24.6484L21.6474 25.2992C21.3269 25.6197 21.3269 26.1393 21.6474 26.4599C21.9679 26.7804 22.4876 26.7804 22.8081 26.4599L23.4589 25.8092L24.1097 26.4599C24.9045 27.2016 26.0119 26.0936 25.2704 25.2992Z" fill="#002F47"/>
</svg>
