<svg width="42" height="42" viewBox="0 0 42 42" fill="none" xmlns="http://www.w3.org/2000/svg">
<g clip-path="url(#clip0_4_999)">
<path d="M39.1203 35.4167H35.8223V3.29128C35.8223 1.47645 34.3458 0 32.531 0H5.34069C3.53145 0 2.05951 1.47194 2.05951 3.28119V7.40949C2.05951 7.86254 2.42684 8.22979 2.87981 8.22979H7.00138V38.2962C7.00138 40.4265 8.81325 42.1504 10.9839 41.9876C11.1214 42.01 10.0292 41.9944 34.1784 41.9993C37.3556 41.9993 39.9406 39.4143 39.9406 36.2371C39.9406 35.784 39.5732 35.4167 39.1203 35.4167ZM3.7001 3.28119C3.7001 2.37656 4.43607 1.64059 5.34069 1.64059H5.36079C6.26541 1.64059 7.00138 2.37656 7.00138 3.28119V6.5892H3.7001V3.28119ZM8.64198 38.2961V3.28119C8.64244 2.70492 8.49013 2.13883 8.20058 1.64059H32.5311C33.4413 1.64059 34.1817 2.38107 34.1817 3.29128V35.4167H13.5872C13.1342 35.4167 12.7669 35.784 12.7669 36.237V38.2962C12.7669 39.4335 11.8417 40.3587 10.7044 40.3587C9.56719 40.3586 8.64198 39.4334 8.64198 38.2961ZM34.1783 40.3586H13.7783C14.1892 39.7493 14.4083 39.031 14.4074 38.2961V37.0572H38.2179C37.8366 38.9384 36.1702 40.3586 34.1783 40.3586Z" fill="#002F47"/>
<path d="M11.9398 5.75882H30.8837C31.3367 5.75882 31.704 5.39157 31.704 4.93852C31.704 4.48547 31.3367 4.11823 30.8837 4.11823H11.9398C11.4868 4.11823 11.1195 4.48547 11.1195 4.93852C11.1195 5.39157 11.4868 5.75882 11.9398 5.75882ZM11.9398 10.2889H30.8837C31.3367 10.2889 31.704 9.92166 31.704 9.46861C31.704 9.01556 31.3367 8.64831 30.8837 8.64831H11.9398C11.4868 8.64831 11.1195 9.01556 11.1195 9.46861C11.1195 9.92166 11.4868 10.2889 11.9398 10.2889ZM11.9398 14.8189H30.8837C31.3367 14.8189 31.704 14.4517 31.704 13.9986C31.704 13.5456 31.3367 13.1783 30.8837 13.1783H11.9398C11.4868 13.1783 11.1195 13.5456 11.1195 13.9986C11.1195 14.4517 11.4868 14.8189 11.9398 14.8189ZM11.9398 19.3489H18.529C18.982 19.3489 19.3493 18.9817 19.3493 18.5286C19.3493 18.0756 18.982 17.7083 18.529 17.7083H11.9398C11.4868 17.7083 11.1195 18.0756 11.1195 18.5286C11.1195 18.9817 11.4868 19.3489 11.9398 19.3489ZM11.9398 23.879H17.7054C18.1583 23.879 18.5257 23.5118 18.5257 23.0587C18.5257 22.6057 18.1583 22.2384 17.7054 22.2384H11.9398C11.4868 22.2384 11.1195 22.6057 11.1195 23.0587C11.1195 23.5118 11.4868 23.879 11.9398 23.879ZM11.9398 28.4091H17.7054C18.1583 28.4091 18.5257 28.0418 18.5257 27.5888C18.5257 27.1357 18.1583 26.7685 17.7054 26.7685H11.9398C11.4868 26.7685 11.1195 27.1357 11.1195 27.5888C11.1195 28.0418 11.4868 28.4091 11.9398 28.4091ZM11.9398 32.9391H17.7054C18.1583 32.9391 18.5257 32.5718 18.5257 32.1188C18.5257 31.6657 18.1583 31.2985 17.7054 31.2985H11.9398C11.4868 31.2985 11.1195 31.6657 11.1195 32.1188C11.1195 32.5718 11.4868 32.9391 11.9398 32.9391ZM26.2506 17.2965C23.2437 17.2965 20.7973 19.7429 20.7973 22.7499C20.7973 24.144 21.3239 25.4171 22.1876 26.3823V32.3247C22.1876 32.4684 22.2253 32.6096 22.297 32.7341C22.3687 32.8586 22.4718 32.9621 22.5961 33.0343C22.7204 33.1064 22.8615 33.1446 23.0052 33.1451C23.1488 33.1455 23.2901 33.1082 23.4149 33.0369L26.2505 31.4163L29.0862 33.0369C29.2109 33.1082 29.3522 33.1454 29.4959 33.1449C29.6395 33.1444 29.7806 33.1062 29.9048 33.0341C30.0291 32.962 30.1322 32.8585 30.2039 32.734C30.2757 32.6095 30.3134 32.4684 30.3134 32.3247V26.3822C31.1772 25.4171 31.7037 24.144 31.7037 22.7499C31.704 19.7429 29.2576 17.2965 26.2506 17.2965ZM26.2506 18.9371C28.3531 18.9371 30.0634 20.6475 30.0634 22.7499C30.0634 24.8522 28.353 26.5625 26.2506 26.5625C24.1483 26.5625 22.4379 24.8521 22.4379 22.7499C22.4379 20.6475 24.1483 18.9371 26.2506 18.9371ZM26.6577 29.7593C26.5337 29.6885 26.3934 29.6512 26.2506 29.6512C26.1079 29.6512 25.9676 29.6885 25.8436 29.7593L23.8283 30.9111V27.6337C25.3264 28.3797 27.1211 28.4065 28.6731 27.6336V30.911L26.6577 29.7593Z" fill="#002F47"/>
</g>
<defs>
<clipPath id="clip0_4_999">
<rect width="42" height="42" fill="white"/>
</clipPath>
</defs>
</svg>
