<svg width="20" height="20" viewBox="0 0 20 20" fill="none" xmlns="http://www.w3.org/2000/svg">
<path d="M9.75 18.75C14.7206 18.75 18.75 14.7206 18.75 9.75C18.75 4.77944 14.7206 0.75 9.75 0.75C4.77944 0.75 0.75 4.77944 0.75 9.75C0.75 14.7206 4.77944 18.75 9.75 18.75Z" stroke="#A2D014" stroke-width="1.5"/>
<path d="M9.75002 4.43974C10.619 4.43974 11.3235 4.04039 11.3235 3.54775C11.3235 3.05512 10.619 2.65576 9.75002 2.65576C8.88103 2.65576 8.17657 3.05512 8.17657 3.54775C8.17657 4.04039 8.88103 4.43974 9.75002 4.43974Z" fill="#299B46"/>
<path d="M5.14977 7.09629C5.58426 6.34374 5.59065 5.53401 5.16402 5.28769C4.7374 5.04137 4.03933 5.45175 3.60484 6.20429C3.17034 6.95684 3.16396 7.76658 3.59058 8.01289C4.0172 8.25921 4.71527 7.84883 5.14977 7.09629Z" fill="#299B46"/>
<path d="M5.16365 14.2123C5.59027 13.966 5.58389 13.1563 5.1494 12.4037C4.71491 11.6512 4.01683 11.2408 3.59021 11.4871C3.16359 11.7334 3.16998 12.5432 3.60447 13.2957C4.03896 14.0482 4.73703 14.4586 5.16365 14.2123Z" fill="#299B46"/>
<path d="M9.75002 16.8445C10.619 16.8445 11.3235 16.4452 11.3235 15.9525C11.3235 15.4599 10.619 15.0605 9.75002 15.0605C8.88103 15.0605 8.17657 15.4599 8.17657 15.9525C8.17657 16.4452 8.88103 16.8445 9.75002 16.8445Z" fill="#299B46"/>
<path d="M15.8923 13.2994C16.3268 12.5469 16.3332 11.7371 15.9066 11.4908C15.48 11.2445 14.7819 11.6549 14.3474 12.4074C13.9129 13.16 13.9065 13.9697 14.3331 14.216C14.7598 14.4623 15.4578 14.052 15.8923 13.2994Z" fill="#299B46"/>
<path d="M15.9061 8.01016C16.3328 7.76384 16.3264 6.95411 15.8919 6.20157C15.4574 5.44902 14.7593 5.03864 14.3327 5.28496C13.9061 5.53128 13.9125 6.34101 14.347 7.09356C14.7815 7.8461 15.4795 8.25648 15.9061 8.01016Z" fill="#299B46"/>
<path d="M9.75 11.3539C10.6357 11.3539 11.3537 10.6359 11.3537 9.75019C11.3537 8.86449 10.6357 8.14648 9.75 8.14648C8.8643 8.14648 8.1463 8.86449 8.1463 9.75019C8.1463 10.6359 8.8643 11.3539 9.75 11.3539Z" fill="#299B46"/>
<path d="M18.75 9.74949C18.75 14.72 14.7204 18.7496 9.74989 18.7496C5.71006 18.7496 2.29194 16.088 1.15332 12.4227C2.44174 15.5759 5.53964 17.7978 9.15625 17.7978C13.9288 17.7978 17.7978 13.9288 17.7978 9.15625C17.7978 5.53964 15.5758 2.44174 12.4227 1.15332C16.088 2.2915 18.75 5.70961 18.75 9.74949Z" fill="black" fill-opacity="0.1"/>
</svg>
