<svg width="52" height="59" viewBox="0 0 52 59" fill="none" xmlns="http://www.w3.org/2000/svg">
<path fill-rule="evenodd" clip-rule="evenodd" d="M50.56 19.7751C45.7168 19.7489 40.8711 19.7331 36.0408 19.7069C24.5627 19.6519 12.7018 19.5837 0.975473 19.5575C0.618773 19.5575 0.328125 19.2717 0.328125 18.9021C0.328125 18.5481 0.616128 18.2598 0.988684 18.2598C12.7123 18.286 24.5759 18.3541 36.054 18.4092C40.884 18.4354 45.7139 18.4643 50.5732 18.4774C50.9299 18.4774 51.2206 18.7631 51.2206 19.1328C51.2074 19.4867 50.9167 19.7751 50.56 19.7751Z" fill="#A2D014" stroke="#A2D014" stroke-width="0.5"/>
<path fill-rule="evenodd" clip-rule="evenodd" d="M25.7506 51.9998C24.7598 51.9998 23.8508 51.5908 23.3012 50.9223L23.288 50.9091L0.870977 21.2797C0.429725 20.6925 0.223629 20.079 0.252694 19.3817C0.279117 18.7394 0.501067 18.1128 0.886833 17.62L0.900045 17.6069C1.16163 17.2923 2.34534 15.8582 3.70872 14.2066C5.45522 12.091 7.53465 9.59252 8.3749 8.56749C9.22833 7.54247 9.62734 7.12039 11.2655 7.01025H11.3078H40.1927H40.235C41.8599 7.10463 42.2721 7.52934 43.1255 8.56749C43.9658 9.59252 46.0294 12.091 47.7917 14.2066C49.1684 15.8582 50.3521 17.2923 50.6004 17.6069L50.6136 17.62C50.9994 18.1128 51.2187 18.7394 51.2477 19.3817C51.2742 20.0791 51.0681 20.6925 50.6295 21.2797L28.2124 50.9091L28.1992 50.9223C27.6628 51.6039 26.7539 51.9998 25.763 51.9998H25.7506ZM24.3343 50.1148C24.6382 50.4845 25.1746 50.7021 25.7506 50.7021C26.3425 50.7021 26.8656 50.4845 27.1669 50.1148L49.5704 20.4982C49.832 20.1573 49.943 19.8296 49.9271 19.4338C49.9139 19.0641 49.7897 18.6971 49.5704 18.4245C49.2956 18.0968 48.1251 16.6758 46.7617 15.0373C44.9993 12.9217 42.9358 10.4232 42.0955 9.3982C41.3795 8.52519 41.2685 8.38888 40.1561 8.32069H11.3104C10.2086 8.38885 10.0844 8.52518 9.37102 9.3982C8.53078 10.4232 6.46718 12.9217 4.70485 15.0373C3.34147 16.6758 2.17357 18.0968 1.89617 18.4245C1.67687 18.7102 1.55268 19.0668 1.53947 19.4338C1.52626 19.8297 1.63459 20.1574 1.89617 20.4982L24.3288 50.1148H24.3343Z" fill="#A2D014" stroke="#A2D014" stroke-width="0.5"/>
<path fill-rule="evenodd" clip-rule="evenodd" d="M25.7514 51.9998C25.6827 51.9998 25.614 51.9867 25.5321 51.9578C25.1886 51.8346 25.0089 51.465 25.1331 51.1372L36.5002 18.8441C36.6244 18.5033 36.997 18.325 37.3405 18.4482C37.684 18.5714 37.8637 18.9411 37.7395 19.2688L26.3723 51.562C26.2772 51.8346 26.0288 51.9998 25.754 51.9998H25.7514Z" fill="#A2D014" stroke="#A2D014" stroke-width="0.5"/>
<path fill-rule="evenodd" clip-rule="evenodd" d="M25.7513 51.9998C25.4765 51.9998 25.2282 51.8372 25.1331 51.562L13.7659 19.2688C13.6417 18.928 13.8214 18.5584 14.1649 18.4482C14.5084 18.325 14.8809 18.5033 14.9919 18.8441L26.3591 51.1372C26.4833 51.4781 26.3036 51.8477 25.9601 51.9578C25.9046 51.9998 25.8359 51.9998 25.754 51.9998H25.7513Z" fill="#A2D014" stroke="#A2D014" stroke-width="0.5"/>
<path fill-rule="evenodd" clip-rule="evenodd" d="M35.5626 19.6942C35.3829 19.6942 35.19 19.613 35.0658 19.4609L25.2524 8.07236C25.0172 7.79971 25.0463 7.39076 25.3211 7.1574C25.5959 6.92408 26.0081 6.95291 26.2432 7.22556L36.0567 18.6141C36.2918 18.8868 36.2628 19.2957 35.988 19.5291C35.8638 19.6523 35.7132 19.6916 35.5626 19.6916L35.5626 19.6942Z" fill="#A2D014" stroke="#A2D014" stroke-width="0.5"/>
<path fill-rule="evenodd" clip-rule="evenodd" d="M35.5605 19.6944C35.4786 19.6944 35.4099 19.6813 35.3253 19.6525C34.995 19.5292 34.8154 19.1465 34.9528 18.8188L39.3019 7.67654C39.4261 7.34884 39.8119 7.17056 40.1421 7.30689C40.4724 7.43011 40.6521 7.81287 40.5147 8.14058L36.1656 19.2828C36.0704 19.5424 35.8221 19.6918 35.5605 19.6918L35.5605 19.6944Z" fill="#A2D014" stroke="#A2D014" stroke-width="0.5"/>
<path fill-rule="evenodd" clip-rule="evenodd" d="M16.0356 19.6129C15.8849 19.6129 15.7317 19.5579 15.6101 19.4635C15.3354 19.2302 15.3063 18.8212 15.5415 18.5485L25.2568 7.2573C25.492 6.98465 25.9041 6.95581 26.1789 7.18914C26.4538 7.42247 26.4828 7.83144 26.2476 8.1041L16.5323 19.3953C16.4081 19.5317 16.2152 19.6129 16.0356 19.6129Z" fill="#A2D014" stroke="#A2D014" stroke-width="0.5"/>
<path fill-rule="evenodd" clip-rule="evenodd" d="M16.0339 19.6132C15.7723 19.6132 15.5239 19.4638 15.4288 19.2042L10.9977 8.15663C10.8603 7.82893 11.0242 7.44617 11.3703 7.30986C11.7006 7.17354 12.0863 7.33607 12.2237 7.67951L16.6548 18.7271C16.7922 19.0548 16.6284 19.4376 16.2822 19.5739C16.2003 19.587 16.1184 19.6158 16.0339 19.6158L16.0339 19.6132Z" fill="#A2D014" stroke="#A2D014" stroke-width="0.5"/>
</svg>
