<svg width="38" height="66" viewBox="0 0 38 66" fill="none" xmlns="http://www.w3.org/2000/svg">
<path d="M37.0273 50.9004L31.0182 39.3298C34.7991 35.9266 37.2299 30.9581 37.2299 25.513C37.2299 15.3036 28.9926 7 18.8649 7C8.73721 7 0.5 15.3036 0.5 25.513C0.5 31.4345 3.26819 36.6753 7.5894 40.0785L1.98529 50.9004C1.58022 51.7171 1.51275 52.3297 1.78264 52.8063C2.12023 53.3509 2.79541 53.4189 3.06554 53.4189H3.26819L9.61489 51.9897L11.9106 57.5707C12.2481 58.4556 12.7207 58.9319 13.3284 58.9319C14.071 58.9319 14.6787 58.047 14.8814 57.6387L19.6077 48.5183L24.4014 57.7067C24.6041 58.1151 25.1441 59 25.9544 59C26.4947 59 26.9672 58.5237 27.3723 57.6387L29.6679 52.0577L36.0822 53.487H36.2171C36.4872 53.487 37.1624 53.419 37.5 52.8744C37.5 52.3298 37.4323 51.7172 37.0272 50.9005L37.0273 50.9004ZM1.31022 25.513C1.31022 15.7801 9.14232 7.81675 18.8649 7.81675C28.52 7.81675 36.4196 15.712 36.4196 25.513C36.4196 30.8901 34.0565 35.7224 30.2755 38.9214C27.8449 41.0313 24.874 42.3925 21.7007 42.9371C20.958 43.0732 20.2829 43.1414 19.6077 43.1414H18.9325C18.5949 43.1414 18.2573 43.1414 17.9872 43.0734H17.5821H17.5147H17.4472C17.0421 43.0054 16.6371 43.0054 16.2317 42.9374H16.0968C15.6917 42.8694 15.3542 42.8013 14.9491 42.6651H14.8142C14.4091 42.529 14.0041 42.4608 13.5313 42.3248H13.4638C11.7084 41.7121 10.0879 40.8275 8.53485 39.6703H8.46737C4.07847 36.4031 1.30989 31.2305 1.30989 25.5132L1.31022 25.513ZM14.0036 57.2303C13.7335 57.7066 13.3959 58.0469 13.1935 58.0469C13.0586 58.0469 12.7885 57.8426 12.5858 57.2303L10.1552 51.3088C10.0877 51.1728 9.95256 51.0365 9.75014 51.0365H9.68267L2.99837 52.5338C2.79573 52.5338 2.52584 52.4658 2.45814 52.3295C2.39066 52.2615 2.32319 51.9892 2.66078 51.3086L8.26467 40.6227C10.1553 41.984 12.2483 42.9369 14.5439 43.5495C14.6113 43.5495 14.6788 43.6175 14.7465 43.6175C15.1516 43.6856 15.5566 43.8218 15.9619 43.8218H16.0294C16.4345 43.8898 16.8395 43.9579 17.2449 43.9579H17.5824C17.9875 43.9579 18.3925 44.0259 18.8653 44.0259C19.5405 44.0259 20.2157 43.9579 20.9583 43.8898L19.2029 47.293L14.0036 57.2303ZM36.4871 52.3296C36.4197 52.4657 36.1496 52.5339 35.9469 52.5339L29.2626 51.0366C29.06 50.9686 28.8576 51.1047 28.7901 51.3089L26.3595 57.2304C26.0894 57.843 25.887 58.047 25.7518 58.047C25.5491 58.047 25.2115 57.7067 24.9417 57.1621L19.9453 47.4972L21.9034 43.6857C25.0766 43.1412 27.98 41.7799 30.3431 39.8743L36.2847 51.3088C36.6221 51.9892 36.5546 52.2615 36.4871 52.3295L36.4871 52.3296ZM18.8649 34.3611C23.7261 34.3611 27.7098 30.3453 27.7098 25.4449C27.7098 20.5445 23.7262 16.5287 18.8649 16.5287C14.0037 16.5287 10.0201 20.5444 10.0201 25.4449C10.0201 30.3455 14.0037 34.3611 18.8649 34.3611ZM18.8649 17.4135C23.2536 17.4135 26.8321 21.0209 26.8321 25.4449C26.8321 29.8688 23.2535 33.4763 18.8649 33.4763C14.4764 33.4763 10.8978 29.8688 10.8978 25.4449C10.898 21.0886 14.4764 17.4135 18.8649 17.4135Z" fill="#A2D014" stroke="#A2D014"/>
</svg>
