<svg width="54" height="54" viewBox="0 0 54 54" fill="none" xmlns="http://www.w3.org/2000/svg">
<path d="M27 54C19.8389 54 12.9728 51.155 7.90763 46.0924C2.84513 41.0272 0 34.1611 0 27C0 19.8389 2.84499 12.9728 7.90763 7.90763C12.9728 2.84513 19.8389 0 27 0C34.1611 0 41.0272 2.84499 46.0924 7.90763C51.1549 12.9728 54 19.8389 54 27C53.9842 34.1563 51.1339 41.0144 46.0742 46.0742C41.0143 51.134 34.1563 53.9845 27 54ZM51.9143 27.108C51.9433 20.4977 49.3434 14.146 44.687 9.4554C40.0332 4.76206 33.7028 2.10938 27.0925 2.08575C20.4822 2.06213 14.1332 4.66445 9.44258 9.32378C4.7545 13.9828 2.10735 20.3135 2.08642 26.9237C2.0655 33.534 4.67303 39.8804 9.33458 44.5689C13.9963 49.257 20.3296 51.8987 26.9399 51.9149C33.5343 51.9149 39.8628 49.3072 44.5399 44.6587C49.2201 40.0128 51.8697 33.7034 51.9149 27.1087L51.9143 27.108Z" fill="#A2D014"/>
<path d="M27.0473 43.5235C22.6624 43.5103 18.4646 41.7568 15.3745 38.6481C12.2843 35.5394 10.5572 31.3284 10.5704 26.9463C10.5836 22.5615 12.3396 18.3637 15.451 15.2736C18.5623 12.186 22.7707 10.4589 27.1555 10.4747C31.5377 10.4905 35.7354 12.2492 38.8228 15.3606C41.9104 18.4719 43.6375 22.683 43.6191 27.0678C43.6112 31.45 41.8604 35.6477 38.7491 38.7351C35.6404 41.8227 31.4294 43.5471 27.0473 43.5235ZM27.3109 41.4985C31.1605 41.4378 34.8257 39.8452 37.4994 37.074C40.1704 34.3028 41.6285 30.5798 41.5494 26.733C41.4703 22.8834 39.8619 19.2237 37.0775 16.5635C34.2958 13.9057 30.5675 12.4634 26.7176 12.5609C22.8678 12.6585 19.219 14.2827 16.5717 17.0803C13.9244 19.8752 12.5006 23.6114 12.6166 27.4584C12.7432 31.2526 14.3516 34.8463 17.1016 37.4673C19.8491 40.0882 23.5141 41.5252 27.311 41.4725L27.3109 41.4985Z" fill="#A2D014"/>
<path d="M27.0527 33.1437C24.561 33.1358 22.3198 31.6276 21.3758 29.3204C20.4319 27.0133 20.975 24.3634 22.7522 22.6153C24.5267 20.8644 27.1819 20.3582 29.4758 21.3338C31.7697 22.312 33.2463 24.5744 33.2173 27.0687C33.183 30.4437 30.4303 33.1569 27.0527 33.1437ZM27.0869 31.0501C29.336 31.0501 31.158 29.2282 31.158 26.9791C31.158 24.7326 29.336 22.9106 27.0869 22.9106C24.8405 22.9106 23.0185 24.7326 23.0185 26.9791C23.0185 29.2282 24.8405 31.0501 27.0869 31.0501Z" fill="#A2D014"/>
</svg>
