<svg width="32" height="32" viewBox="0 0 32 32" fill="none" xmlns="http://www.w3.org/2000/svg">
<g clip-path="url(#clip0_30_250)">
<path d="M21.0334 6.99215L22.3582 8.3169M18.3839 4.34265L19.7086 5.6674M18.3839 9.64165L19.7086 10.9665M15.7344 6.99215L17.0591 8.3169M15.7344 12.2912L17.0591 13.616M23.6829 9.64165L25.0077 10.9665M23.6829 4.34265L25.0077 5.6674M26.3324 6.99215L27.6572 8.3169M21.0334 12.2912L22.3582 13.616M18.3839 14.9407L19.7086 16.2655" stroke="#A2D014" stroke-width="1.8735" stroke-miterlimit="10"/>
<path d="M8.44843 20.9021L11.0979 23.5517L3.97436 30.675L1.32488 28.0254L8.44843 20.9021Z" stroke="#A2D014" stroke-width="1.8735" stroke-miterlimit="10"/>
<path d="M25.4111 19.0001C21.6005 20.9295 16.5888 21.0941 13.7475 18.2528C10.0892 14.5945 11.414 7.33862 15.0722 3.68043C18.7304 0.022244 24.6616 0.0221816 28.3198 3.68043C31.0871 6.44765 31.761 10.5154 30.3418 13.9161M8.44843 20.9024L12.1373 8.74312M11.098 23.5519L23.2572 19.8629" stroke="#A2D014" stroke-width="1.8735" stroke-miterlimit="10"/>
<path d="M26.995 19.3502C29.0644 19.3502 30.742 17.6726 30.742 15.6032C30.742 13.5338 29.0644 11.8562 26.995 11.8562C24.9256 11.8562 23.248 13.5338 23.248 15.6032C23.248 17.6726 24.9256 19.3502 26.995 19.3502Z" stroke="#A2D014" stroke-width="1.8735" stroke-miterlimit="10"/>
</g>
<defs>
<clipPath id="clip0_30_250">
<rect width="32" height="32" fill="white"/>
</clipPath>
</defs>
</svg>
