<svg width="84" height="99" viewBox="0 0 84 99" fill="none" xmlns="http://www.w3.org/2000/svg">
<path opacity="0.1" d="M54.0352 94.1629C49.3362 97.3876 43.676 99 37.0546 99C31.9284 99 27.2294 97.9251 22.9575 95.7752C18.6857 93.4104 15.375 90.1857 13.0255 86.101C10.4624 82.0163 9.18083 77.0717 9.18083 71.2671C9.18083 65.8925 10.3556 61.4853 12.7051 58.0456C15.0546 54.3909 17.9381 51.7036 21.3556 49.9837C24.7731 48.0489 28.1905 47.0814 31.608 47.0814C34.3847 47.0814 36.5206 47.2964 38.0158 47.7264C39.5109 48.1564 40.7925 48.8013 41.8604 49.6612L43.4624 48.6938C41.7536 44.1792 39.2973 39.772 36.0934 35.4723C32.676 31.1726 28.5109 27.3029 23.5983 23.8632C18.6857 20.2085 13.3459 17.3062 7.57888 15.1564L26.8022 0C34.7051 3.65473 41.7536 8.70685 47.9478 15.1564C53.9284 21.6059 58.7342 28.9153 62.3653 37.0847C65.9964 45.0391 67.8119 53.5309 67.8119 62.5603C67.8119 69.0098 66.6371 75.0293 64.2876 80.6189C61.9381 86.2085 58.5206 90.7231 54.0352 94.1629Z" fill="#002F47"/>
<path opacity="0.1" d="M77.5614 99C84.1828 99 89.843 97.3876 94.542 94.1629C99.0275 90.7231 102.445 86.2085 104.794 80.6189C107.144 75.0293 108.319 69.0098 108.319 62.5603C108.319 53.5309 106.503 45.0391 102.872 37.0847C99.2411 28.9153 94.4352 21.6059 88.4546 15.1564C82.2605 8.70685 75.2119 3.65473 67.309 0L48.4061 15.1564C54.1731 17.3062 59.5129 20.2085 64.4255 23.8632C69.1245 27.3029 73.1828 31.1726 76.6003 35.4723C79.8042 39.772 82.2605 44.1792 83.9692 48.6938L82.3673 49.6612C81.2993 48.8013 80.0178 48.1564 78.5226 47.7264C77.0275 47.2964 74.8915 47.0814 72.1148 47.0814C68.6974 47.0814 65.2799 48.0489 61.8624 49.9837C58.4449 51.7036 55.5614 54.3909 53.2119 58.0456C50.8624 61.4853 49.6877 65.8925 49.6877 71.2671C49.6877 77.0717 50.9692 82.0163 53.5323 86.101C56.0954 90.1857 59.5129 93.4104 63.7847 95.7752C67.843 97.9251 72.4352 99 77.5614 99Z" fill="#002F47"/>
</svg>
