<svg width="56" height="56" viewBox="0 0 56 56" fill="none" xmlns="http://www.w3.org/2000/svg">
<path d="M0 28C0 12.536 12.536 0 28 0C43.464 0 56 12.536 56 28C56 43.464 43.464 56 28 56C12.536 56 0 43.464 0 28Z" fill="#A2D014"/>
<path d="M14.3403 30.0104L14.7857 30.3413L13.8967 36.327C13.7608 37.2525 14.0459 38.1835 14.6801 38.8927C15.3124 39.6 16.2354 40 17.2018 40H37.8153C38.7874 40 39.7047 39.5945 40.3371 38.8927C40.9694 38.189 41.2601 37.2544 41.1204 36.327L40.2314 30.3413L40.6768 30.0104C41.5168 29.3867 42 28.4466 42 27.432V23.7081C42 22.1625 40.8599 20.817 39.2895 20.5151L38.6176 20.3842L37.9305 15.7657C37.6983 14.1874 36.2733 13 34.6198 13H20.3802C18.7267 13 17.3073 14.1874 17.0695 15.7657L16.3824 20.3842L15.7105 20.5151C14.1401 20.8224 13 22.1625 13 23.7081V27.432C13 28.443 13.4832 29.383 14.3232 30.0104H14.3403ZM26.547 38.1383H17.2076C16.7924 38.1383 16.4149 37.971 16.145 37.6728C15.875 37.3709 15.7542 36.9836 15.8109 36.5891L16.6848 30.6904H26.547L26.547 38.1383ZM38.8876 37.6673C38.6025 37.9746 38.2307 38.1383 37.8249 38.1383H28.4855V30.6904H38.3477L39.2216 36.5891C39.2802 36.9855 39.1631 37.3674 38.8932 37.6692L38.8876 37.6673ZM28.4798 14.864H34.6349C35.3314 14.864 35.9297 15.3658 36.0316 16.0331L36.6885 20.4498H28.4837V14.864H28.4798ZM18.9989 16.0331C19.0951 15.3676 19.6953 14.864 20.3956 14.864H26.5507V20.4498H18.3459L19.0027 16.0331H18.9989ZM14.9501 23.7081C14.9501 22.9408 15.6032 22.3117 16.3997 22.3117H38.6272C39.4237 22.3117 40.0768 22.9408 40.0768 23.7081V27.432C40.0768 28.1993 39.4237 28.8285 38.6272 28.8285H16.3997C15.6032 28.8285 14.9501 28.1993 14.9501 27.432V23.7081Z" fill="#002F47"/>
</svg>
