<svg width="56" height="56" viewBox="0 0 56 56" fill="none" xmlns="http://www.w3.org/2000/svg">
<path d="M0 28C0 12.536 12.536 0 28 0C43.464 0 56 12.536 56 28C56 43.464 43.464 56 28 56C12.536 56 0 43.464 0 28Z" fill="#A2D014"/>
<path d="M13.4612 38.182L15.9223 40.5571C16.5571 41.1603 17.5568 41.1364 18.1617 40.5523C18.41 40.3142 19.2515 38.7393 21.1586 36.4525C22.2681 35.1442 24.1365 34.7275 25.8068 35.462C25.8323 35.4746 25.8545 35.4835 25.8678 35.4877C29.9475 37.2739 34.1825 35.9198 37.5821 32.6245C42.8104 27.5792 43.4971 20.0291 39.1128 15.7939C37.2498 13.9963 34.6525 13.0062 31.7991 13.0062C30.5569 13.0062 29.2974 13.1977 28.0498 13.5593C25.915 11.452 22.5025 11.5249 20.4455 13.5102C18.7262 15.1693 18.3987 17.7483 19.6091 19.7529C19.4205 20.0328 19.2478 20.3023 19.1001 20.5598C18.4568 21.6685 18.069 22.8723 17.9482 24.1381C17.9481 24.1391 17.9487 24.1401 17.9486 24.1412C17.7979 25.7356 18.0914 27.3314 18.7975 28.7566C18.7988 28.7593 18.8 28.7617 18.8011 28.7637C18.8018 28.7651 18.8025 28.7664 18.8032 28.7677C18.8043 28.7695 18.8055 28.7706 18.8062 28.7706C18.8121 28.7876 18.8193 28.8044 18.8273 28.8208C19.5321 30.2607 19.0627 32.0696 17.712 33.1214C16.4368 34.1117 15.1037 35.0124 13.742 35.8032C12.8845 36.3227 12.7427 37.4799 13.4612 38.182ZM21.1096 14.151C21.9407 13.3489 23.0467 12.9073 24.2241 12.9073C28.1471 12.9073 30.0959 17.5055 27.3435 20.1618C25.4633 21.9756 22.2026 21.8571 20.5514 19.5079C19.397 17.8296 19.6315 15.5774 21.1096 14.151ZM20.1949 20.5477C22.207 22.7854 25.8005 22.9322 28.0075 20.8026C29.8151 19.0582 30.0612 16.3283 28.6855 14.3187C29.7248 14.049 30.7694 13.9125 31.7991 13.9125C34.4017 13.9125 36.7633 14.8083 38.4485 16.4345C42.4669 20.3163 41.7804 27.2915 36.9174 31.9844C35.1982 33.6506 33.0171 35.028 30.6057 35.3016L18.9061 24.012C19.0667 22.698 19.5107 21.6235 20.1949 20.5477ZM14.2338 36.5753C15.6242 35.768 16.9926 34.8434 18.3013 33.8272C20.0092 32.4971 20.576 30.2857 19.6823 28.4456C19.6802 28.4411 19.6786 28.4376 19.677 28.4347C19.6768 28.4343 19.6768 28.4341 19.6765 28.4336C19.6745 28.4303 19.6731 28.4283 19.6722 28.4283C19.666 28.4104 19.6584 28.3927 19.6497 28.3757C19.1643 27.3995 18.8949 26.3331 18.8546 25.2452L29.3316 35.3549C28.2606 35.3202 27.2284 35.0881 26.2718 34.6697C26.256 34.6622 26.2393 34.6551 26.2209 34.6483C26.2184 34.6472 26.2159 34.6458 26.2134 34.6447C24.1564 33.7318 21.8202 34.242 20.4293 35.8815C18.009 38.7838 17.7981 39.6216 17.4984 39.9109C17.2562 40.1441 16.8284 40.1463 16.584 39.914L14.1272 37.5433C13.8272 37.2499 13.9029 36.7758 14.2338 36.5753Z" fill="#002F47" stroke="#002F47"/>
</svg>
