<svg width="56" height="56" viewBox="0 0 56 56" fill="none" xmlns="http://www.w3.org/2000/svg">
<path d="M0 28C0 12.536 12.536 0 28 0C43.464 0 56 12.536 56 28C56 43.464 43.464 56 28 56C12.536 56 0 43.464 0 28Z" fill="#A2D014"/>
<path d="M28 27.0023C31.86 27.0023 35 23.861 35 20.0011V19.9996H39.6667V17.6664H34.6006C33.6375 14.9504 31.0429 13 28 13C24.14 13 21 16.1398 21 20.0012C21 23.8626 24.14 27.0023 28 27.0023ZM28 15.3332C29.7242 15.3332 31.2326 16.2719 32.0409 17.6664H23.9594C24.7676 16.2735 26.2757 15.3332 28 15.3332ZM23.3333 19.9996H32.6667V20.0011C32.6667 22.5758 30.5734 24.6691 28 24.6691C25.4266 24.6691 23.3333 22.5759 23.3333 20.0011V19.9996Z" fill="#002F47"/>
<path d="M35 29.3354H21C17.14 29.3354 14 32.4737 14 36.3335V40.9999H16.3333V36.3335C16.3333 33.7618 18.4266 31.6687 21 31.6687H35C37.5734 31.6687 39.6667 33.7619 39.6667 36.3335V40.9999H42V36.3335C42 32.4752 38.86 29.3354 35 29.3354Z" fill="#002F47"/>
</svg>
