<svg width="40" height="40" viewBox="0 0 40 40" fill="none" xmlns="http://www.w3.org/2000/svg">
<path d="M21.4281 2.11256L22.2998 2.90099C22.5501 3.12741 22.8507 3.29104 23.1768 3.3784C23.5028 3.46576 23.845 3.47433 24.175 3.40341L25.3242 3.15654C26.393 2.92693 27.4621 3.54412 27.7976 4.58458L28.1583 5.70325C28.262 6.02451 28.4405 6.31652 28.6792 6.55521C28.9179 6.7939 29.2099 6.97243 29.5312 7.07606L30.6498 7.43676C31.6903 7.77231 32.3075 8.84137 32.0779 9.91019L31.8309 11.0594C31.76 11.3894 31.7686 11.7316 31.856 12.0576C31.9434 12.3837 32.107 12.6843 32.3334 12.9346L33.1218 13.8064C33.8551 14.6172 33.8551 15.8517 33.1218 16.6624L32.3334 17.5342C32.107 17.7846 31.9434 18.0852 31.856 18.4112C31.7686 18.7373 31.76 19.0794 31.8309 19.4095L32.0779 20.5587C32.3075 21.6275 31.6903 22.6966 30.6498 23.0321L29.5312 23.3928C29.2099 23.4964 28.9179 23.675 28.6792 23.9136C28.4405 24.1523 28.262 24.4443 28.1583 24.7655L27.7976 25.8843C27.4621 26.9248 26.393 27.542 25.3242 27.3123L24.175 27.0654C23.845 26.9945 23.5028 27.0031 23.1768 27.0905C22.8507 27.1778 22.5501 27.3415 22.2998 27.5679L21.4281 28.3562C20.6172 29.0896 19.3827 29.0896 18.5719 28.3562L17.7002 27.5679C17.4498 27.3415 17.1492 27.1778 16.8232 27.0905C16.4971 27.0031 16.155 26.9945 15.8249 27.0654L14.6757 27.3123C13.607 27.542 12.5378 26.9248 12.2023 25.8843L11.8416 24.7655C11.738 24.4443 11.5594 24.1523 11.3208 23.9136C11.0821 23.675 10.7901 23.4964 10.4689 23.3928L9.35012 23.0321C8.30965 22.6966 7.69247 21.6275 7.92208 20.5587L8.16903 19.4095C8.23991 19.0794 8.23131 18.7373 8.14396 18.4113C8.0566 18.0852 7.89299 17.7846 7.66661 17.5342L6.87817 16.6624C6.14482 15.8517 6.14482 14.6172 6.87817 13.8064L7.66661 12.9346C7.89299 12.6843 8.0566 12.3837 8.14396 12.0576C8.23131 11.7316 8.23991 11.3894 8.16903 11.0594L7.92208 9.91019C7.69247 8.84137 8.30965 7.77231 9.35012 7.43676L10.4689 7.07606C10.7901 6.97242 11.0821 6.7939 11.3208 6.55521C11.5595 6.31652 11.738 6.0245 11.8416 5.70325L12.2023 4.58458C12.5378 3.54412 13.607 2.92693 14.6757 3.15654L15.8249 3.40341C16.155 3.47433 16.4971 3.46576 16.8232 3.3784C17.1492 3.29104 17.4498 3.12741 17.7002 2.90099L18.5719 2.11256C19.3827 1.37928 20.6172 1.37928 21.4281 2.11256Z" stroke="#002F47" stroke-width="2" stroke-miterlimit="10" stroke-linecap="round" stroke-linejoin="round"/>
<path d="M12.1875 33.2031V36.2191C12.1875 38.1587 14.5045 39.1607 15.9176 37.8323L18.2508 35.6777C19.2385 34.7656 20.7613 34.7656 21.7491 35.6777L24.0823 37.8323C25.4954 39.1607 27.8124 38.1587 27.8124 36.2191V33.2031" stroke="#002F47" stroke-width="2" stroke-miterlimit="10" stroke-linecap="round" stroke-linejoin="round"/>
<path d="M20 8.90629C16.505 8.90629 13.6718 11.7395 13.6718 15.2344C13.6718 18.7293 16.505 21.5625 20 21.5625C23.4949 21.5625 26.3281 18.7293 26.3281 15.2344" stroke="#002F47" stroke-width="2" stroke-miterlimit="10" stroke-linecap="round" stroke-linejoin="round"/>
</svg>
