<svg width="34" height="34" viewBox="0 0 34 34" fill="none" xmlns="http://www.w3.org/2000/svg">
<g clip-path="url(#clip0_58_167)">
<path d="M24.5038 20.719C24.5038 19.0686 25.8417 17.7307 27.4921 17.7307C29.1425 17.7307 30.4804 19.0686 30.4804 20.719C30.4804 22.3694 29.1425 23.7073 27.4921 23.7073C25.8417 23.7073 24.5038 22.3694 24.5038 20.719Z" stroke="#002F47" stroke-width="2" stroke-miterlimit="10" stroke-linecap="round" stroke-linejoin="round"/>
<path d="M13.8789 21.4495C13.8789 19.7991 15.2168 18.4612 16.8671 18.4612C18.5175 18.4612 19.8554 19.7991 19.8554 21.4495C19.8554 23.0999 18.5175 24.4377 16.8671 24.4377C15.2168 24.4377 13.8789 23.0999 13.8789 21.4495Z" stroke="#002F47" stroke-width="2" stroke-miterlimit="10" stroke-linecap="round" stroke-linejoin="round"/>
<path d="M32.6718 14.8573C32.6718 13.8355 32.436 12.8274 31.9827 11.9116C31.5294 10.9958 30.8709 10.197 30.0584 9.57726L21.0271 2.68902C18.6487 0.875009 15.3512 0.875009 12.9728 2.68902L3.94154 9.57726C3.12903 10.197 2.47051 10.9958 2.01722 11.9116C1.56393 12.8274 1.32812 13.8355 1.32813 14.8573V26.0315C1.32813 29.5653 4.08829 32.4543 7.57029 32.6604" stroke="#002F47" stroke-width="2" stroke-miterlimit="10" stroke-linecap="round" stroke-linejoin="round"/>
<path d="M22.0468 32.6721C22.0468 30.0127 24.2237 27.8318 26.9091 27.8318H27.8095C30.4949 27.8318 32.6718 30.0127 32.6718 32.6721" stroke="#002F47" stroke-width="2" stroke-miterlimit="10" stroke-linecap="round" stroke-linejoin="round"/>
<path d="M12.3515 32.6721C12.3515 30.5113 14.1203 28.7542 16.3021 28.7542H18.0625" stroke="#002F47" stroke-width="2" stroke-miterlimit="10" stroke-linecap="round" stroke-linejoin="round"/>
</g>
<defs>
<clipPath id="clip0_58_167">
<rect width="34" height="34" fill="white"/>
</clipPath>
</defs>
</svg>
