<svg width="36" height="36" viewBox="0 0 36 36" fill="none" xmlns="http://www.w3.org/2000/svg">
<g clip-path="url(#clip0_58_183)">
<path d="M6.96092 27.8435V8.43733C6.96092 4.55405 10.1089 1.4061 13.9922 1.4061H27.5624C31.4457 1.4061 34.5937 4.55405 34.5937 8.43733V27.5623C34.5937 31.4456 31.4457 34.5935 27.5624 34.5935H8.43748C4.5542 34.5935 1.40625 31.4456 1.40625 27.5623V19.1248C1.40625 16.0182 3.85431 13.4998 6.96092 13.4998" stroke="#002F47" stroke-width="1.67442" stroke-miterlimit="10" stroke-linecap="round" stroke-linejoin="round"/>
<path d="M12.5859 9.07031H28.9687" stroke="#002F47" stroke-width="1.67442" stroke-miterlimit="10" stroke-linecap="round" stroke-linejoin="round"/>
<path d="M23.5546 22.2188H29.0389" stroke="#002F47" stroke-width="1.67442" stroke-miterlimit="10" stroke-linecap="round" stroke-linejoin="round"/>
<path d="M18.8438 16.5938H29.039" stroke="#002F47" stroke-width="1.67442" stroke-miterlimit="10" stroke-linecap="round" stroke-linejoin="round"/>
<path d="M12.5859 22.2188H18" stroke="#002F47" stroke-width="1.67442" stroke-miterlimit="10" stroke-linecap="round" stroke-linejoin="round"/>
<path d="M12.5859 27.8438H18" stroke="#002F47" stroke-width="1.67442" stroke-miterlimit="10" stroke-linecap="round" stroke-linejoin="round"/>
<path d="M23.5546 27.8438H26.1561" stroke="#002F47" stroke-width="1.67442" stroke-miterlimit="10" stroke-linecap="round" stroke-linejoin="round"/>
<path d="M11.1797 16.4531C11.1797 17.4239 11.9667 18.2109 12.9375 18.2109C13.9083 18.2109 14.6953 17.4239 14.6953 16.4531C14.6953 15.4823 13.9083 14.6953 12.9375 14.6953C11.9667 14.6953 11.1797 15.4823 11.1797 16.4531Z" fill="#002F47"/>
</g>
<defs>
<clipPath id="clip0_58_183">
<rect width="36" height="36" fill="white"/>
</clipPath>
</defs>
</svg>
