<svg width="40" height="40" viewBox="0 0 40 40" fill="none" xmlns="http://www.w3.org/2000/svg">
<path d="M38.4375 15.3125V30.9375C38.4375 32.6634 37.0384 34.0625 35.3125 34.0625H4.6875C2.96164 34.0625 1.5625 32.6634 1.5625 30.9375V9.0625C1.5625 7.33664 2.96164 5.9375 4.6875 5.9375H35.3125C37.0384 5.9375 38.4375 7.33664 38.4375 9.0625M26.5625 13.75H32.1875M32.1875 20H26.5625M32.1875 26.25H26.5625" stroke="#002F47" stroke-width="2" stroke-miterlimit="10" stroke-linecap="round" stroke-linejoin="round"/>
<path d="M14.0625 13.75L15.8993 17.4718L20.0067 18.0687L17.0346 20.9657L17.7362 25.0563L14.0625 23.125L10.3889 25.0563L11.0905 20.9657L8.11841 18.0687L12.2258 17.4718L14.0625 13.75Z" stroke="#002F47" stroke-width="2" stroke-miterlimit="10" stroke-linecap="round" stroke-linejoin="round"/>
</svg>
